<?xml version="1.0" encoding="UTF-8"?>
<svg xmlns="http://www.w3.org/2000/svg" viewBox="0 0 48 48">
  <title>Google G Logo</title>
  <desc>Multicolor Google "G" logo for use in Sign in with Google buttons.</desc>
  <path fill="#FFC107" d="M43.611 20.083H42V20H24v8h11.303C33.677 31.66 29.223 35 24 35c-6.627 0-12-5.373-12-12s5.373-12 12-12c3.059 0 5.842 1.156 7.957 3.043l5.657-5.657C34.232 5.122 29.353 3 24 3 12.955 3 4 11.955 4 23s8.955 20 20 20 20-8.955 20-20c0-1.341-.138-2.651-.389-3.917z"/>
  <path fill="#FF3D00" d="M6.306 14.691l6.571 4.816C14.44 16.104 18.874 13 24 13c3.059 0 5.842 1.156 7.957 3.043l5.657-5.657C34.232 5.122 29.353 3 24 3 15.316 3 7.987 8.231 6.306 14.691z"/>
  <path fill="#4CAF50" d="M24 43c5.166 0 9.946-1.977 13.536-5.193l-6.237-5.238C29.123 34.091 26.715 35 24 35c-5.202 0-9.645-3.321-11.281-7.946l-6.52 5.025C7.844 38.683 15.366 43 24 43z"/>
  <path fill="#1976D2" d="M43.611 20.083H42V20H24v8h11.303A12.003 12.003 0 0124 35c-5.202 0-9.645-3.321-11.281-7.946l-6.52 5.025C7.844 38.683 15.366 43 24 43c8.634 0 16.156-4.317 19.489-10.922.82-1.614 1.403-3.492 1.403-5.578 0-1.341-.138-2.651-.389-3.917z"/>
</svg>
